<?xml version="1.0" standalone="no"?>
<!DOCTYPE svg PUBLIC "-//W3C//DTD SVG 20010904//EN"
 "http://www.w3.org/TR/2001/REC-SVG-20010904/DTD/svg10.dtd">
<svg version="1.0" xmlns="http://www.w3.org/2000/svg"
 width="640.000000pt" height="640.000000pt" viewBox="0 0 640.000000 640.000000"
 preserveAspectRatio="xMidYMid meet">

<g transform="translate(0.000000,640.000000) scale(0.100000,-0.100000)"
fill="#000000" stroke="none">
<path d="M3043 4683 c4 -27 15 -118 27 -203 25 -192 24 -216 -3 -118 -12 42
-25 80 -29 84 -12 12 -148 -61 -212 -113 -53 -43 -135 -144 -136 -166 0 -5 17
4 38 20 49 39 67 49 58 35 -4 -7 -1 -12 8 -12 8 0 18 5 21 10 4 6 25 19 48 31
42 20 42 20 19 0 -13 -11 -21 -25 -17 -31 3 -5 0 -10 -9 -10 -8 0 -16 -3 -18
-7 -1 -5 -16 -15 -33 -24 -16 -9 -29 -21 -28 -27 2 -6 -6 -14 -17 -17 -11 -4
-20 -11 -20 -16 0 -12 36 -3 68 18 13 8 26 12 29 9 9 -9 -37 -75 -57 -81 -11
-4 -20 -15 -20 -26 0 -10 -6 -19 -14 -19 -8 0 -18 -4 -21 -10 -10 -16 32 -11
49 6 19 18 63 10 48 -9 -8 -10 -13 -47 -6 -47 1 0 32 13 68 29 85 39 170 97
251 173 l65 60 67 -62 c73 -69 175 -139 250 -171 59 -26 136 -50 141 -44 10
10 -12 25 -39 25 -16 0 -29 5 -29 12 0 6 -7 20 -17 30 -15 17 -15 18 15 18 17
0 32 -4 34 -9 2 -5 17 -12 33 -16 26 -5 28 -5 14 7 -9 7 -21 23 -28 36 -6 12
-16 22 -21 22 -15 0 -46 35 -52 58 -4 12 -5 22 -4 22 1 0 21 -9 45 -21 23 -11
48 -18 54 -16 7 2 1 10 -13 16 -14 7 -30 22 -35 34 -6 12 -17 22 -26 22 -17 0
-49 28 -49 42 0 4 -9 14 -21 21 -12 7 -19 16 -16 18 2 3 29 -9 58 -27 32 -19
55 -27 57 -20 2 7 21 -2 43 -20 22 -17 42 -29 44 -27 9 9 -67 108 -117 152
-57 50 -212 135 -224 123 -4 -4 -17 -44 -30 -89 -34 -123 -30 -82 24 310 l9
62 -165 0 -165 0 6 -47z m-140 -580 c-13 -8 -23 -22 -23 -29 0 -20 -14 -17
-36 7 -19 21 -19 22 3 15 14 -5 31 -1 45 8 12 9 25 16 28 15 3 0 -5 -7 -17
-16z m612 3 c11 -7 28 -15 38 -17 17 -4 17 -4 0 -15 -15 -9 -23 -6 -46 17 -30
31 -25 39 8 15z"/>
<path d="M3141 4095 c-79 -68 -133 -103 -224 -145 -93 -43 -139 -57 -247 -74
l-75 -12 3 -75 c1 -41 5 -112 8 -159 l6 -85 87 -85 c121 -119 181 -185 154
-171 -25 13 -153 108 -168 125 -5 6 -18 17 -27 25 -16 12 -18 11 -18 -14 0
-20 4 -26 15 -21 9 3 15 0 15 -10 0 -8 -4 -12 -10 -9 -5 3 -10 1 -10 -5 0 -7
9 -14 20 -17 21 -6 28 -33 8 -33 -6 0 -1 -12 13 -27 14 -16 32 -37 40 -47 13
-18 12 -19 -3 -13 -10 3 -20 2 -23 -3 -4 -6 -2 -10 3 -10 6 0 8 -10 4 -22 -4
-17 -2 -20 11 -15 15 6 17 -2 17 -55 0 -58 1 -61 16 -42 15 18 15 18 10 -7 -4
-17 0 -31 9 -39 13 -11 13 -14 -2 -25 -15 -11 -15 -13 5 -24 11 -6 29 -11 39
-12 10 0 13 -3 6 -6 -7 -2 -13 -11 -13 -18 0 -8 -10 -21 -22 -30 -23 -16 -23
-16 77 -113 55 -54 115 -108 133 -121 l32 -22 0 53 c0 29 -4 127 -9 218 -6 91
-13 235 -16 320 l-7 155 -118 65 c-111 60 -118 66 -124 100 -7 41 -8 90 -2 90
3 0 69 -23 148 -51 79 -29 158 -56 176 -61 33 -9 34 -10 28 -56 -3 -26 -8 -95
-12 -153 l-6 -106 56 -59 56 -59 55 60 55 60 -2 153 -3 154 170 59 c93 32 172
59 175 59 8 0 -4 -102 -13 -117 -5 -7 -58 -41 -119 -75 -60 -34 -112 -66 -114
-72 -5 -16 -36 -727 -32 -731 5 -6 152 122 212 184 49 50 49 51 30 68 -35 31
-36 50 -2 64 27 11 29 14 14 24 -14 11 -14 14 -2 25 10 8 13 23 10 43 l-5 32
16 -25 c15 -25 15 -25 14 20 -2 74 0 80 16 74 10 -4 15 0 15 15 0 31 -3 36
-20 33 -12 -2 -11 0 3 11 9 8 17 18 17 23 0 5 9 16 20 24 23 16 26 36 8 43 -8
4 -5 8 9 12 25 8 39 35 18 35 -8 0 -15 4 -15 10 0 5 6 9 12 7 7 -1 14 9 16 21
3 20 -9 13 -81 -45 -153 -123 -159 -114 -21 30 l132 136 6 81 c3 44 9 116 12
160 l6 80 -39 0 c-57 0 -197 38 -280 76 -85 38 -157 84 -231 148 -30 25 -57
46 -61 46 -4 0 -31 -20 -60 -45z m491 -947 c-6 -6 -12 3 -16 22 -8 44 6 62 17
21 5 -20 5 -37 -1 -43z m-849 21 c-6 -21 -11 -28 -15 -19 -6 17 9 66 18 58 3
-3 1 -21 -3 -39z m63 -244 c-1 -38 -3 -40 -26 -25 -13 9 -13 11 0 20 8 5 11
10 6 10 -7 0 11 30 18 30 2 0 2 -16 2 -35z m735 4 c9 -17 8 -23 -2 -30 -22
-14 -33 -10 -19 6 10 12 10 18 0 30 -8 10 -9 15 -2 15 6 0 16 -10 23 -21z"/>
<path d="M2739 3953 c-13 -15 -11 -16 16 -9 41 10 56 26 23 26 -14 0 -32 -7
-39 -17z"/>
<path d="M1715 2178 c-70 -145 -132 -271 -137 -280 -8 -16 -3 -18 50 -18 l59
0 77 163 78 162 33 -65 c18 -36 31 -68 28 -72 -2 -5 -17 -8 -33 -8 -23 0 -30
-7 -44 -40 -9 -22 -16 -43 -16 -45 0 -3 33 -5 73 -5 l73 0 22 -45 22 -45 55 0
c30 0 55 3 55 7 0 3 -43 95 -95 204 -52 108 -110 231 -129 273 -19 42 -37 76
-39 76 -2 0 -61 -118 -132 -262z"/>
<path d="M3975 2421 c-4 -12 -62 -136 -131 -275 -68 -139 -124 -256 -124 -260
0 -3 25 -6 56 -6 l55 0 78 163 78 162 31 -62 c18 -34 32 -64 32 -67 0 -2 -13
-7 -28 -11 -26 -5 -62 -55 -62 -85 0 -6 31 -10 68 -10 l68 0 22 -45 22 -45 59
0 60 0 -75 158 c-41 86 -98 207 -127 267 -60 130 -72 147 -82 116z"/>
<path d="M2180 2155 l0 -275 50 0 49 0 3 147 3 146 155 -147 155 -147 8 123
c4 68 6 188 5 268 l-3 145 -52 3 -52 3 -3 -143 -3 -143 -152 148 c-83 81 -154
147 -157 147 -3 0 -6 -124 -6 -275z"/>
<path d="M2921 2418 c-210 -32 -301 -278 -164 -446 86 -106 246 -128 367 -52
l46 30 0 115 0 115 -106 0 -105 0 3 -47 3 -48 48 -3 47 -3 0 -39 c0 -35 -3
-39 -36 -50 -76 -26 -169 11 -204 81 -62 120 25 257 155 245 28 -2 65 -12 83
-23 l33 -18 29 35 c16 19 28 40 26 45 -5 17 -81 55 -127 63 -24 4 -69 4 -98 0z"/>
<path d="M1140 2414 c0 -8 101 -234 171 -381 31 -67 61 -132 64 -144 4 -11 11
-17 15 -13 10 10 235 491 245 524 6 20 3 21 -51 18 l-58 -3 -65 -147 c-36 -82
-67 -148 -70 -148 -3 0 -15 21 -25 48 -11 26 -41 93 -68 150 l-48 102 -55 0
c-30 0 -55 -3 -55 -6z"/>
<path d="M3260 2243 c0 -98 5 -194 10 -214 43 -153 234 -206 347 -97 58 56 63
79 63 294 l0 194 -49 0 -50 0 -3 -191 -3 -191 -33 -29 c-35 -31 -73 -37 -117
-17 -49 22 -55 51 -55 248 l0 180 -55 0 -55 0 0 -177z"/>
<path d="M4320 2150 l0 -270 50 0 50 0 0 220 0 220 60 0 c72 0 117 -20 126
-55 9 -34 -14 -84 -40 -89 -11 -3 -44 -8 -72 -13 l-51 -8 86 -137 86 -138 59
0 c46 0 57 3 53 14 -5 12 -54 95 -98 164 -13 21 -12 24 19 48 45 35 62 74 62
136 0 72 -31 126 -90 156 -39 19 -59 22 -172 22 l-128 0 0 -270z"/>
<path d="M4820 2151 l0 -271 118 0 c81 0 133 5 164 16 103 35 178 140 178 250
0 79 -17 128 -63 180 -66 75 -100 87 -259 92 l-138 4 0 -271z m279 139 c92
-53 107 -182 29 -257 -43 -41 -76 -53 -149 -53 l-59 0 0 171 0 172 69 -5 c46
-4 82 -13 110 -28z"/>
</g>
</svg>
